HIERARCHY
ROOT root
{
	OFFSET 0.000000 0.000000 0.000000
	CHANNELS 6 Xposition Yposition Zposition Zrotation Yrotation Xrotation
	JOINT lhip
	{
		OFFSET 0.058581 -0.082280 -0.017664
		CHANNELS 3 Zrotation Yrotation Xrotation
		JOINT lknee
		{
			OFFSET 0.043451 -0.386469 0.008037
			CHANNELS 3 Zrotation Yrotation Xrotation
			JOINT lankle
			{
				OFFSET -0.014790 -0.426874 -0.037428
				CHANNELS 3 Zrotation Yrotation Xrotation
				JOINT ltoe
				{
					OFFSET 0.041054 -0.060286 0.122042
					CHANNELS 3 Zrotation Yrotation Xrotation
					End Site
					{
						OFFSET 0.000000 0.000000 0.000000
					}
				}
			}
		}
	}
	JOINT rhip
	{
		OFFSET -0.060310 -0.090513 -0.013543
		CHANNELS 3 Zrotation Yrotation Xrotation
		JOINT rknee
		{
			OFFSET -0.043257 -0.383688 -0.004843
			CHANNELS 3 Zrotation Yrotation Xrotation
			JOINT rankle
			{
				OFFSET 0.019056 -0.420046 -0.034562
				CHANNELS 3 Zrotation Yrotation Xrotation
				JOINT rtoe
				{
					OFFSET -0.034840 -0.062106 0.130323
					CHANNELS 3 Zrotation Yrotation Xrotation
					End Site
					{
						OFFSET 0.000000 0.000000 0.000000
					}
				}
			}
		}
	}
	JOINT lowerback
	{
		OFFSET 0.004439 0.124404 -0.038385
		CHANNELS 3 Zrotation Yrotation Xrotation
		JOINT upperback
		{
			OFFSET 0.004488 0.137956 0.026820
			CHANNELS 3 Zrotation Yrotation Xrotation
			JOINT chest
			{
				OFFSET -0.002265 0.056032 0.002855
				CHANNELS 3 Zrotation Yrotation Xrotation
				JOINT lowerneck
				{
					OFFSET -0.013390 0.211636 -0.033468
					CHANNELS 3 Zrotation Yrotation Xrotation
					JOINT upperneck
					{
						OFFSET 0.010113 0.088937 0.050410
						CHANNELS 3 Zrotation Yrotation Xrotation
						End Site
						{
							OFFSET 0.000000 0.000000 0.000000
						}
					}
				}
				JOINT lclavicle
				{
					OFFSET 0.071702 0.114000 -0.018898
					CHANNELS 3 Zrotation Yrotation Xrotation
					JOINT lshoulder
					{
						OFFSET 0.122921 0.045205 -0.019046
						CHANNELS 3 Zrotation Yrotation Xrotation
						JOINT lelbow
						{
							OFFSET 0.255332 -0.015649 -0.022946
							CHANNELS 3 Zrotation Yrotation Xrotation
							JOINT lwrist
							{
								OFFSET 0.265709 0.012698 -0.007375
								CHANNELS 3 Zrotation Yrotation Xrotation
								End Site
								{
									OFFSET 0.000000 0.000000 0.000000
								}
							}
						}
					}
				}
				JOINT rclavicle
				{
					OFFSET -0.082954 0.112472 -0.023707
					CHANNELS 3 Zrotation Yrotation Xrotation
					JOINT rshoulder
					{
						OFFSET -0.113228 0.046853 -0.008472
						CHANNELS 3 Zrotation Yrotation Xrotation
						JOINT relbow
						{
							OFFSET -0.260127 -0.014369 -0.031269
							CHANNELS 3 Zrotation Yrotation Xrotation
							JOINT rwrist
							{
								OFFSET -0.269108 0.006794 -0.006027
								CHANNELS 3 Zrotation Yrotation Xrotation
								End Site
								{
									OFFSET 0.000000 0.000000 0.000000
								}
							}
						}
					}
				}
			}
		}
	}
}
MOTION
Frames: 17
Frame Time: 0.033333
-0.699119 0.087798 0.986506 80.477118 -2.137858 84.190450 -2.164791 0.420197 -3.989439 -13.348145 -15.919261 21.957777 4.037473 6.776783 -14.433617 0.000000 -0.000000 0.000000 -13.545644 -7.609963 -10.650278 3.432262 -0.487921 45.852124 7.665835 -13.543136 -13.286038 0.000000 -0.000000 0.000000 5.172714 1.284371 13.168361 4.193869 0.226292 -5.773680 -0.259622 1.528272 -1.131666 7.395963 4.172795 -17.032583 0.835038 -1.695287 14.812941 -27.046680 5.785147 -6.594638 -12.057053 -2.159956 -7.161490 10.587162 -20.084316 -26.369161 8.146835 -13.702468 4.239190 30.898924 -1.189450 -7.709486 14.357469 -0.976197 -3.740554 -25.647750 16.341138 -34.741180 23.222210 6.945871 5.959069 
-0.691277 0.082563 1.014250 79.677309 -3.562070 85.322804 -3.015973 1.226696 -1.331187 -11.204006 -16.629682 14.776388 -0.732409 5.822400 -6.433089 0.000000 -0.000000 0.000000 -15.004742 -7.531741 -9.124069 3.543335 0.828190 34.055584 8.837117 -11.875013 -9.288043 0.000000 -0.000000 0.000000 6.555522 1.185687 11.935849 4.525782 0.336944 -5.994555 0.319976 1.925304 -1.308044 6.752926 5.143121 -16.064104 0.514486 -0.210531 14.848892 -26.550378 6.409269 -6.843378 -11.338882 -2.348939 -7.071115 10.383567 -18.614786 -27.768146 12.524866 -15.305817 4.137811 30.671465 -1.804299 -7.296414 11.391260 -0.143307 -4.658702 -25.678250 17.265630 -36.149283 14.956298 9.170521 6.149526 
-0.685173 0.074534 1.037851 80.248558 -5.166371 86.220168 -3.863823 1.669104 -0.076302 -9.304594 -16.723818 9.771750 -4.847414 5.293193 0.474671 0.000000 -0.000000 0.000000 -16.125932 -7.699367 -7.421980 3.741842 3.567119 24.546095 10.105298 -9.995017 -2.298407 0.000000 -0.000000 0.000000 7.491367 1.275311 10.836830 5.007273 -0.095250 -6.001875 0.783050 1.899199 -1.904158 5.972616 6.398190 -13.854191 1.148232 1.865771 13.538335 -25.738176 5.962951 -6.590286 -8.761350 -2.168343 -7.600567 9.569380 -17.014025 -29.983824 17.494219 -18.031972 5.340095 30.589341 -1.943140 -7.029088 9.214187 -0.307332 -4.648697 -25.690170 17.602160 -37.865684 3.779837 12.225299 6.540579 
-0.678425 0.061520 1.051840 81.533499 -6.703818 87.174863 -4.339804 0.874204 -0.554680 -8.660318 -17.193048 8.960423 -5.291338 6.735145 0.063082 0.000000 -0.000000 0.000000 -16.665428 -6.784928 -6.477685 4.635852 7.249060 18.835821 12.178417 -8.213719 2.265325 0.000000 -0.000000 0.000000 8.297440 1.458930 9.133993 5.952620 -0.559091 -6.079893 1.136966 1.875184 -1.675731 5.313960 7.748440 -12.661936 1.100383 2.736278 12.777494 -24.007909 5.235828 -5.842504 -5.770861 -2.268609 -8.284634 8.823124 -15.845061 -30.679349 23.804787 -20.286504 5.553542 30.836407 -2.247704 -5.508425 8.093252 -0.435720 -5.132669 -26.118066 17.162170 -40.054017 -10.481567 15.581979 5.069378 
-0.674874 0.052050 1.051504 81.768191 -7.734236 87.175810 -4.212813 0.548558 -0.215981 -8.227923 -15.388153 8.607615 -3.719059 8.326230 -2.386437 0.000000 -0.000000 0.000000 -16.468031 -6.104233 -6.769353 3.978396 7.700720 20.017973 11.140971 -10.155549 0.718534 0.000000 -0.000000 0.000000 8.269001 1.544608 9.324281 6.180790 -0.443582 -6.743619 1.273347 1.709992 -1.324484 5.354910 8.543382 -12.047838 1.013578 2.860122 12.913468 -22.566081 5.351541 -5.297847 -4.764424 -1.889232 -8.748855 8.855774 -15.849772 -30.258391 25.677816 -20.524980 4.890104 30.736589 -2.315172 -5.329554 9.416365 -0.115974 -4.583682 -26.740752 16.304741 -41.419754 -17.703390 16.793372 4.206971 
-0.669254 0.038508 1.042617 81.897983 -9.222317 86.872935 -3.558684 1.051837 1.366732 -7.481863 -14.479494 6.502048 -2.222296 9.929984 -6.121228 0.000000 -0.000000 0.000000 -16.503742 -5.273932 -6.282927 3.118440 7.257895 21.652808 9.959711 -11.641447 -3.399547 0.000000 -0.000000 0.000000 7.761475 1.100516 9.558647 6.088783 -0.511938 -6.823158 1.322293 1.689400 -0.695681 5.590226 9.653051 -11.903984 0.484958 2.640027 12.886630 -21.573008 6.175981 -4.650288 -4.093785 -0.792543 -9.347974 8.966130 -16.380742 -29.843348 28.568337 -20.261212 3.419425 31.715182 -1.931388 -5.084341 11.400364 0.288606 -3.785155 -26.729281 15.979755 -42.643964 -25.599591 16.785991 2.573548 
-0.665490 0.024202 1.027315 81.738878 -10.667765 86.847183 -2.458258 1.945675 1.773359 -6.878134 -14.259041 5.984101 -1.231016 10.435576 -9.385169 0.000000 -0.000000 0.000000 -16.732003 -6.113361 -6.802294 3.057139 7.857311 24.230543 8.239473 -12.383854 -9.055599 0.000000 -0.000000 0.000000 6.918061 1.005064 9.665231 5.864558 -0.596573 -6.402065 1.148446 1.614849 -0.255567 5.689522 10.807065 -12.761517 -0.496435 1.998048 13.378046 -21.707863 7.303211 -4.103868 -4.699775 0.196711 -9.864299 9.314696 -16.297962 -29.583646 28.359083 -19.683753 2.936958 33.134347 -2.034690 -5.562781 13.995379 1.188114 -3.302605 -26.723144 15.522761 -42.944733 -25.509168 16.306786 1.049091 
-0.663439 0.010217 1.009464 81.428565 -11.531399 86.934709 -0.833171 2.269511 1.578673 -6.518085 -14.479674 6.702746 -0.637321 10.951316 -11.320562 0.000000 -0.000000 0.000000 -16.781590 -6.110195 -8.408972 3.763458 7.755024 28.528610 7.137131 -12.621539 -14.695543 0.000000 -0.000000 0.000000 6.357315 0.899011 10.060368 5.482470 -0.036417 -5.801792 0.838312 1.585901 -0.108674 5.384225 11.084626 -14.094052 -1.382100 1.217757 13.849982 -23.013153 8.543526 -4.135967 -6.906010 0.345248 -9.649386 10.098286 -16.904007 -29.458086 27.918466 -17.468488 1.335030 34.638737 -2.386886 -6.185826 16.498649 1.403998 -2.500945 -25.898995 15.292689 -42.468445 -21.692397 14.483786 0.014671 
-0.663086 -0.003374 0.992737 81.294473 -11.697768 87.070715 0.970918 2.145885 0.455714 -6.754037 -15.339457 9.358890 -0.599010 10.867632 -13.638813 0.000000 -0.000000 0.000000 -16.200294 -5.814910 -10.280478 4.454709 7.398904 33.047459 6.383089 -12.415414 -20.362961 0.000000 -0.000000 0.000000 5.835295 0.728627 10.703040 5.251042 0.660970 -5.287721 0.722806 1.488344 -0.128851 5.276596 10.939354 -15.878749 -2.627184 0.434624 14.194429 -25.201235 9.715602 -4.826786 -10.629966 0.047709 -8.883276 11.233198 -17.377531 -29.053048 26.589882 -15.491029 -0.725876 35.942544 -2.696022 -6.232116 18.445814 1.812115 -1.935839 -24.686532 14.731112 -40.748933 -16.509864 12.948572 -0.309600 
-0.662570 -0.019869 0.975440 81.944090 -11.433787 86.873321 2.474072 1.204573 -1.405428 -7.287310 -15.827456 14.258003 -0.144625 10.158601 -15.933099 0.000000 -0.000000 0.000000 -15.121690 -6.487024 -10.225198 4.772914 5.488208 34.740234 4.251840 -12.705526 -26.362973 0.000000 -0.000000 0.000000 5.497794 0.811786 10.764059 4.805867 0.256852 -3.612384 0.210906 1.521424 -0.422393 4.944398 11.142812 -16.823963 -2.826996 0.482211 13.402568 -27.364412 9.821003 -4.902357 -16.213817 0.008083 -7.724488 12.039381 -17.254122 -27.598949 22.563403 -12.335103 -2.877527 36.754530 -2.321640 -5.736850 21.014317 1.962771 -1.825471 -24.723608 14.380902 -38.009276 -7.372864 10.628975 -0.206039 
-0.662618 -0.030226 0.968113 82.255869 -10.773482 87.352172 3.142142 0.607516 -3.554857 -8.107173 -15.363439 18.102035 0.146930 9.904125 -16.988760 0.000000 -0.000000 0.000000 -14.014605 -6.754690 -10.532368 5.157293 4.746985 35.207425 3.425419 -12.340448 -28.349309 0.000000 -0.000000 0.000000 5.569048 1.200106 11.166131 4.242404 0.866994 -4.306239 -0.046473 1.157622 -0.664719 4.540285 10.350517 -17.301328 -3.121776 0.849586 14.067675 -29.266121 9.703492 -4.903576 -19.404767 -0.554497 -6.924748 11.602223 -15.798357 -26.037668 18.589308 -11.403422 -3.095569 36.664445 -2.617859 -5.815071 21.256415 1.665881 -1.976059 -23.983043 14.149233 -35.849007 -0.421907 9.132599 0.642350 
-0.660321 -0.039253 0.967217 82.195399 -9.667592 87.551703 3.453007 0.881693 -4.580326 -8.686015 -13.756251 20.562232 0.829220 9.682000 -17.481149 0.000000 -0.000000 0.000000 -12.923709 -6.735406 -10.682938 5.967057 3.568575 35.446302 3.459032 -11.741654 -27.953995 0.000000 -0.000000 0.000000 5.801282 1.444563 11.260004 3.657126 1.262940 -4.598203 -0.306480 1.287829 -0.893533 4.112542 9.372428 -17.518105 -3.148456 1.725600 14.589160 -30.470877 9.526594 -5.291410 -21.875163 -0.664508 -6.616350 11.321236 -14.110294 -25.685515 15.451486 -11.005950 -2.850343 35.738682 -2.459667 -5.550343 20.733162 1.620281 -2.720837 -23.460703 13.669004 -33.936744 5.746100 7.970184 2.125257 
-0.655719 -0.047224 0.972416 82.148078 -8.708068 88.019649 2.922837 1.316998 -5.036891 -9.322019 -11.877486 21.356801 0.409236 9.958250 -17.725740 0.000000 -0.000000 0.000000 -11.878406 -7.611446 -9.148718 6.291944 3.558037 32.324382 3.308198 -10.468105 -26.508886 0.000000 -0.000000 0.000000 5.808878 2.066036 10.736158 2.866370 1.423016 -5.058165 -0.692005 1.419126 -1.113761 3.520788 8.527182 -17.703047 -2.908006 1.945443 15.064450 -30.943821 9.333564 -5.981257 -22.065971 -0.504627 -6.981816 10.638307 -12.622411 -26.664769 13.204580 -10.875561 -1.123435 34.619185 -2.675888 -5.817134 19.400583 1.129012 -3.119148 -23.084339 14.493327 -31.674127 12.980072 6.871082 3.376468 
-0.649901 -0.055152 0.982769 81.993853 -7.850426 88.444332 1.910216 1.815721 -4.587835 -9.799901 -9.666861 19.927293 0.881318 10.254522 -17.723298 0.000000 -0.000000 0.000000 -10.812622 -8.014346 -7.193821 6.373045 3.834760 28.402306 3.757976 -9.646207 -23.716650 0.000000 -0.000000 0.000000 5.404721 2.766341 9.724476 2.035299 1.528654 -5.333272 -1.067389 1.657968 -1.275082 2.907208 7.582812 -17.282641 -2.707930 2.419594 14.990188 -30.729934 9.176536 -6.393571 -20.840322 -0.118540 -7.606289 10.926408 -12.359677 -28.171704 12.098959 -10.966035 0.635419 33.106496 -2.873211 -5.686245 18.445343 1.061125 -3.757074 -23.343599 14.827869 -30.900633 16.759127 6.022799 4.850011 
-0.642846 -0.062282 0.995163 82.157873 -6.955053 88.519269 0.768217 2.099024 -3.283898 -10.415247 -7.513482 16.721529 0.913762 10.500856 -16.610539 0.000000 -0.000000 0.000000 -9.933054 -8.100134 -4.951617 6.422974 3.841861 24.634699 4.826058 -8.918371 -19.811692 0.000000 -0.000000 0.000000 4.921006 3.121198 8.615438 1.413852 1.336469 -4.951779 -1.530939 2.226771 -1.552120 2.120029 6.957327 -17.170706 -3.161712 2.359674 14.648771 -29.964744 9.041568 -7.008845 -18.976904 0.336647 -7.659735 11.534726 -13.586518 -29.478151 13.427399 -11.755059 1.776999 31.886020 -2.739183 -5.577131 17.101126 0.852431 -3.968906 -24.089606 15.507421 -31.399908 15.585968 5.780802 5.078985 
-0.635946 -0.068951 1.008164 82.812959 -5.563733 88.765288 -0.144233 2.387830 -2.684732 -10.066551 -4.990031 13.784058 0.241190 11.249187 -15.258969 0.000000 -0.000000 0.000000 -8.381991 -8.137987 -3.135510 6.204408 3.881153 21.282644 5.625914 -8.724074 -15.565161 0.000000 -0.000000 0.000000 4.879270 3.306397 7.524450 0.986382 1.233135 -5.223862 -1.784847 2.443415 -1.745444 0.977817 5.777530 -16.851029 -3.883781 2.280897 14.400502 -29.136818 8.958512 -7.233599 -16.854928 0.338557 -7.734983 12.280810 -15.254840 -31.152236 16.617735 -13.259992 2.534252 30.833060 -2.635969 -6.009345 15.017447 1.141678 -4.389749 -24.096350 15.768898 -32.143878 11.194790 7.377409 6.792469 
-0.629982 -0.075891 1.017904 83.998363 -4.226093 88.931241 -0.757701 2.772386 -2.610010 -9.455099 -3.034735 11.620800 0.779172 12.235457 -13.960919 0.000000 -0.000000 0.000000 -6.864482 -8.300001 -1.768429 6.292155 3.847149 18.846401 6.230511 -8.697216 -11.778157 0.000000 -0.000000 0.000000 4.263802 3.404439 6.413777 0.802352 0.881252 -5.271654 -1.759262 2.566373 -1.665510 -0.273739 4.983631 -17.101171 -4.550581 2.108195 14.144001 -27.766666 8.428982 -7.227941 -15.176319 0.027378 -7.903062 13.033077 -16.937673 -31.801678 19.297734 -14.401962 2.235352 29.797254 -2.511000 -5.685667 13.852017 1.213767 -4.684771 -24.770765 16.902367 -32.833793 6.497084 8.781748 6.975114 
